<?xml version="1.0" encoding="UTF-8"?>
<svg width="540px" height="101px" viewBox="0 0 540 101" version="1.1" xmlns="http://www.w3.org/2000/svg" xmlns:xlink="http://www.w3.org/1999/xlink">
    <title>simplelocalize-logo-dark</title>
    <g id="simplelocalize-logo-dark" stroke="none" stroke-width="1" fill="none" fill-rule="evenodd">
        <path d="M37.4632813,15 C41.1335938,15 44.5296869,15.9408143 47.6515625,17.8224448 C50.7734381,19.7040753 53.2203125,22.184405 54.9921875,25.2634357 C57.0171875,23.8949769 59.2531256,23.2107485 61.7,23.2107485 C65.0750006,23.2107485 67.9437494,24.4081487 70.30625,26.802951 C72.6687506,29.1977533 73.85,32.1057254 73.85,35.5268713 C73.85,37.0663867 73.596875,38.5631383 73.090625,40.0171244 C76.8031244,40.7868821 79.8828131,42.6685126 82.3296875,45.662014 C84.7765619,48.6555154 86,52.119425 86,56.0537426 C86,59.047244 85.2828119,61.8055424 83.8484375,64.3286376 C82.5513248,66.6102867 80.8229664,68.4547938 78.6633624,69.862159 C72.1043023,74.6584215 58.2007066,81.5433121 40.7121286,85.8867516 C34.7500744,87.3674793 51.5777786,73.8634007 44.8863763,72.4750138 L23.225,72.4752397 C19.934375,72.4752397 16.896875,71.6413355 14.1125,69.9735272 C11.328125,68.3057189 9.11328125,66.0605924 7.46796875,63.2381476 C5.82265625,60.4157028 5,57.3366721 5,54.0010555 C5,49.9812105 6.1390625,46.389008 8.4171875,43.2244481 C10.6953125,40.0598881 13.60625,37.8361443 17.15,36.5532149 L17.15,35.5268713 C17.15,31.8491396 18.0570319,28.4279956 19.8710938,25.2634357 C21.6851556,22.0988757 24.1531244,19.5971632 27.275,17.7582983 C30.3968756,15.9194334 33.7929688,15 37.4632813,15 Z" id="Combined-Shape" fill="#222B33"></path>
        <path d="M125.985708,72.8988693 C128.052224,72.8988693 130.019388,72.6206845 131.8872,72.0643148 C133.755013,71.5079451 135.394316,70.6733906 136.805111,69.5606513 C138.215905,68.447912 139.33858,67.0470526 140.173134,65.3580733 C141.007689,63.6690939 141.424966,61.6919946 141.424966,59.4267752 C141.424966,56.9231117 140.928207,54.9162068 139.93469,53.4060606 C138.941173,51.8959144 137.709212,50.6838233 136.238806,49.7697874 C134.7684,48.8557515 133.158902,48.1404191 131.410312,47.6237901 C129.661722,47.1071612 128.052224,46.5706618 126.581818,46.0142922 C125.111413,45.4579225 123.879451,44.8022011 122.885934,44.047128 C121.892417,43.2920549 121.395658,42.1991859 121.395658,40.768521 C121.395658,39.8147445 121.594362,38.9901251 121.991768,38.294663 C122.389175,37.599201 122.915739,37.0328961 123.571461,36.5957485 C124.227182,36.1586009 124.962385,35.8406754 125.777069,35.641972 C126.591753,35.4432685 127.436243,35.3439168 128.310538,35.3439168 C129.780944,35.3439168 131.181803,35.6121664 132.513116,36.1486658 C133.844429,36.6851651 134.907493,37.5296548 135.702307,38.6821348 L135.702307,38.6821348 L141.186522,32.8998643 C139.517413,31.3499774 137.639665,30.2372381 135.553279,29.5616463 C133.466893,28.8860546 131.31096,28.5482587 129.085482,28.5482587 C127.138188,28.5482587 125.230635,28.8065732 123.362822,29.3232022 C121.49501,29.8398311 119.835836,30.6247098 118.385301,31.6778381 C116.934766,32.7309664 115.762415,34.0523443 114.86825,35.641972 C113.974084,37.2315996 113.527001,39.1192824 113.527001,41.3050204 C113.527001,43.8086839 114.02376,45.8056536 115.017277,47.2959294 C116.010795,48.7862053 117.242756,49.9784261 118.713161,50.8725916 C120.183567,51.7667571 121.793065,52.4721544 123.541655,52.9887834 C125.290246,53.5054123 126.899744,54.0518468 128.370149,54.6280868 C129.840555,55.2043269 131.072516,55.9097241 132.066033,56.7442786 C133.059551,57.5788331 133.556309,58.7710538 133.556309,60.3209408 C133.556309,61.2747173 133.337736,62.119207 132.900588,62.8544098 C132.46344,63.5896125 131.8872,64.1956581 131.171868,64.6725464 C130.456536,65.1494346 129.661722,65.5071009 128.787427,65.745545 C127.913131,65.9839891 127.038836,66.1032112 126.164541,66.1032112 C124.495432,66.1032112 122.915739,65.7157395 121.425464,64.940796 C119.935188,64.1658526 118.733032,63.0829187 117.818996,61.6919946 L117.818996,61.6919946 L112.155948,67.1762099 C113.904538,69.2427258 115.990924,70.7131313 118.415106,71.5874265 C120.839288,72.4617217 123.362822,72.8988693 125.985708,72.8988693 Z M152.020652,37.7879692 C153.332095,37.7879692 154.434899,37.3806272 155.329065,36.565943 C156.22323,35.7512589 156.670313,34.7279361 156.670313,33.4959747 C156.670313,32.2640133 156.22323,31.2406905 155.329065,30.4260063 C154.434899,29.6113222 153.332095,29.2039801 152.020652,29.2039801 C150.709209,29.2039801 149.626276,29.6311925 148.771851,30.4856174 C147.917426,31.3400422 147.490214,32.3434946 147.490214,33.4959747 C147.490214,34.6484547 147.917426,35.6519071 148.771851,36.506332 C149.626276,37.3607568 150.709209,37.7879692 152.020652,37.7879692 Z M155.656925,71.8258706 L155.656925,43.2125735 L148.503601,43.2125735 L148.503601,71.8258706 L155.656925,71.8258706 Z M170.544606,71.8258706 L170.544606,56.2077793 C170.544606,55.2540027 170.663828,54.3399668 170.902272,53.4656716 C171.140717,52.5913765 171.528188,51.816433 172.064688,51.1408412 C172.601187,50.4652495 173.276779,49.9287502 174.091463,49.5313433 C174.906147,49.1339364 175.909599,48.9352329 177.10182,48.9352329 C178.850411,48.9352329 180.102242,49.4617971 180.857315,50.5149254 C181.612389,51.5680537 181.989925,52.9887834 181.989925,54.7771144 L181.989925,54.7771144 L181.989925,71.8258706 L189.143249,71.8258706 L189.143249,56.3270014 C189.143249,55.4129655 189.252536,54.5088648 189.47111,53.6146992 C189.689684,52.7205337 190.04735,51.9257199 190.544109,51.2302578 C191.040867,50.5347957 191.676718,49.9784261 192.451662,49.5611488 C193.226605,49.1438716 194.170447,48.9352329 195.283186,48.9352329 C196.356185,48.9352329 197.23048,49.114066 197.906072,49.4717322 C198.581663,49.8293985 199.118163,50.3162219 199.51557,50.9322026 C199.912976,51.5481833 200.191161,52.2635158 200.350124,53.0781999 C200.509087,53.8928841 200.588568,54.7373737 200.588568,55.6116689 L200.588568,55.6116689 L200.588568,71.8258706 L207.741893,71.8258706 L207.741893,54.7771144 C207.741893,53.0682647 207.563059,51.4687019 207.205393,49.9784261 C206.847727,48.4881502 206.261552,47.1866425 205.446868,46.0739032 C204.632183,44.9611639 203.56912,44.0868687 202.257677,43.4510176 C200.946234,42.8151666 199.336736,42.4972411 197.429183,42.4972411 C195.283186,42.4972411 193.435244,42.9244535 191.885357,43.7788783 C190.33547,44.6333032 189.043898,45.9745515 188.01064,47.8026232 C186.540234,44.2657018 183.559682,42.4972411 179.068984,42.4972411 C176.684543,42.4972411 174.786925,43.0238052 173.37613,44.0769335 C171.965336,45.1300618 170.942013,46.3322177 170.306162,47.6834012 L170.306162,47.6834012 L170.18694,47.6834012 L170.18694,43.2125735 L163.391282,43.2125735 L163.391282,71.8258706 L170.544606,71.8258706 Z M222.510351,85.4171868 L222.510351,68.1895975 L222.689184,68.1895975 C223.046851,68.6664858 223.503868,69.1533092 224.060238,69.6500678 C224.616608,70.1468265 225.2922,70.6137796 226.087013,71.0509272 C226.881827,71.4880748 227.795863,71.845741 228.829121,72.1239258 C229.862379,72.4021107 231.0546,72.5412031 232.405783,72.5412031 C234.432558,72.5412031 236.300371,72.1537313 238.009221,71.3787879 C239.71807,70.6038444 241.178541,69.5407809 242.390632,68.1895975 C243.602723,66.838414 244.546564,65.2487864 245.222156,63.4207146 C245.897748,61.5926428 246.235543,59.6254787 246.235543,57.5192221 C246.235543,55.4129655 245.917618,53.4458013 245.281767,51.6177295 C244.645916,49.7896578 243.71201,48.2000302 242.480048,46.8488467 C241.248087,45.4976632 239.757811,44.4345997 238.009221,43.6596563 C236.26063,42.8847128 234.293466,42.4972411 232.107728,42.4972411 C230.080953,42.4972411 228.19327,42.894648 226.44468,43.6894618 C224.696089,44.4842756 223.305165,45.7559777 222.271907,47.5045681 L222.271907,47.5045681 L222.152685,47.5045681 L222.152685,43.2125735 L215.357027,43.2125735 L215.357027,85.4171868 L222.510351,85.4171868 Z M230.677063,66.1032112 C229.36562,66.1032112 228.19327,65.8647671 227.160012,65.3878788 C226.126754,64.9109905 225.242524,64.2751395 224.507321,63.4803256 C223.772118,62.6855118 223.215748,61.771476 222.838212,60.738218 C222.460675,59.70496 222.271907,58.6319614 222.271907,57.5192221 C222.271907,56.4064827 222.460675,55.3334841 222.838212,54.3002261 C223.215748,53.2669682 223.772118,52.3529323 224.507321,51.5581185 C225.242524,50.7633047 226.126754,50.1274536 227.160012,49.6505654 C228.19327,49.1736771 229.36562,48.9352329 230.677063,48.9352329 C231.988506,48.9352329 233.160856,49.1736771 234.194114,49.6505654 C235.227372,50.1274536 236.111603,50.7633047 236.846805,51.5581185 C237.582008,52.3529323 238.138378,53.2669682 238.515914,54.3002261 C238.893451,55.3334841 239.082219,56.4064827 239.082219,57.5192221 C239.082219,58.6319614 238.893451,59.70496 238.515914,60.738218 C238.138378,61.771476 237.582008,62.6855118 236.846805,63.4803256 C236.111603,64.2751395 235.227372,64.9109905 234.194114,65.3878788 C233.160856,65.8647671 231.988506,66.1032112 230.677063,66.1032112 Z M259.990615,71.8258706 L259.990615,26.7599276 L252.83729,26.7599276 L252.83729,71.8258706 L259.990615,71.8258706 Z M282.150842,72.5412031 C284.416061,72.5412031 286.581929,72.1040555 288.648445,71.2297603 C290.71496,70.3554651 292.582773,68.8850596 294.251882,66.8185436 L294.251882,66.8185436 L289.125333,62.9438263 C288.211297,64.0565657 287.148233,64.9805367 285.936142,65.7157395 C284.724051,66.4509423 283.22384,66.8185436 281.435509,66.8185436 C279.408734,66.8185436 277.680014,66.2224333 276.249349,65.0302126 C274.818684,63.8379919 273.98413,62.1688829 273.745686,60.0228856 L273.745686,60.0228856 L295.563325,60.0228856 L295.563325,58.0557214 C295.563325,55.5520579 295.235464,53.3365144 294.579743,51.4090909 C293.924021,49.4816674 293.009985,47.8622343 291.837635,46.5507915 C290.665285,45.2393487 289.25449,44.2358963 287.605251,43.5404342 C285.956013,42.8449721 284.137876,42.4972411 282.150842,42.4972411 C280.004844,42.4972411 277.978069,42.8549073 276.070516,43.5702397 C274.162963,44.2855721 272.513724,45.2989597 271.1228,46.6104025 C269.731876,47.9218453 268.629072,49.5015378 267.814388,51.3494799 C266.999703,53.197422 266.592361,55.2540027 266.592361,57.5192221 C266.592361,59.7844414 266.999703,61.8410222 267.814388,63.6889643 C268.629072,65.5369064 269.731876,67.1165988 271.1228,68.4280416 C272.513724,69.7394844 274.162963,70.752872 276.070516,71.4682044 C277.978069,72.1835369 280.004844,72.5412031 282.150842,72.5412031 Z M288.41,54.6578924 L273.745686,54.6578924 C274.02387,52.5913765 274.788879,50.9421378 276.04071,49.7101764 C277.292542,48.478215 278.991457,47.8622343 281.137454,47.8622343 C283.402673,47.8622343 285.171134,48.4682798 286.442836,49.6803709 C287.714538,50.8924619 288.37026,52.5516358 288.41,54.6578924 L288.41,54.6578924 Z M328.155483,71.8258706 L328.155483,65.0302126 L310.212561,65.0302126 L310.212561,29.6212573 L302.701571,29.6212573 L302.701571,71.8258706 L328.155483,71.8258706 Z M346.917881,72.5412031 C349.063878,72.5412031 351.090654,72.1835369 352.998207,71.4682044 C354.90576,70.752872 356.554999,69.7394844 357.945923,68.4280416 C359.336847,67.1165988 360.439651,65.5369064 361.254335,63.6889643 C362.069019,61.8410222 362.476361,59.7844414 362.476361,57.5192221 C362.476361,55.2540027 362.069019,53.197422 361.254335,51.3494799 C360.439651,49.5015378 359.336847,47.9218453 357.945923,46.6104025 C356.554999,45.2989597 354.90576,44.2855721 352.998207,43.5702397 C351.090654,42.8549073 349.063878,42.4972411 346.917881,42.4972411 C344.771884,42.4972411 342.745109,42.8549073 340.837556,43.5702397 C338.930002,44.2855721 337.280764,45.2989597 335.88984,46.6104025 C334.498915,47.9218453 333.396111,49.5015378 332.581427,51.3494799 C331.766743,53.197422 331.359401,55.2540027 331.359401,57.5192221 C331.359401,59.7844414 331.766743,61.8410222 332.581427,63.6889643 C333.396111,65.5369064 334.498915,67.1165988 335.88984,68.4280416 C337.280764,69.7394844 338.930002,70.752872 340.837556,71.4682044 C342.745109,72.1835369 344.771884,72.5412031 346.917881,72.5412031 Z M346.917881,66.1032112 C345.606438,66.1032112 344.434088,65.8647671 343.40083,65.3878788 C342.367572,64.9109905 341.483342,64.2751395 340.748139,63.4803256 C340.012936,62.6855118 339.456567,61.771476 339.07903,60.738218 C338.701493,59.70496 338.512725,58.6319614 338.512725,57.5192221 C338.512725,56.4064827 338.701493,55.3334841 339.07903,54.3002261 C339.456567,53.2669682 340.012936,52.3529323 340.748139,51.5581185 C341.483342,50.7633047 342.367572,50.1274536 343.40083,49.6505654 C344.434088,49.1736771 345.606438,48.9352329 346.917881,48.9352329 C348.229324,48.9352329 349.401674,49.1736771 350.434932,49.6505654 C351.46819,50.1274536 352.352421,50.7633047 353.087623,51.5581185 C353.822826,52.3529323 354.379196,53.2669682 354.756732,54.3002261 C355.134269,55.3334841 355.323037,56.4064827 355.323037,57.5192221 C355.323037,58.6319614 355.134269,59.70496 354.756732,60.738218 C354.379196,61.771476 353.822826,62.6855118 353.087623,63.4803256 C352.352421,64.2751395 351.46819,64.9109905 350.434932,65.3878788 C349.401674,65.8647671 348.229324,66.1032112 346.917881,66.1032112 Z M383.086702,72.5412031 C383.722553,72.5412031 384.477626,72.4716569 385.351921,72.3325645 C386.226216,72.193472 387.140252,71.9649631 388.094029,71.6470375 C389.047805,71.329112 389.991647,70.9118348 390.925553,70.3952058 C391.859459,69.8785768 392.684078,69.2625961 393.399411,68.5472637 L393.399411,68.5472637 L388.630528,63.4207146 C387.954936,64.2950098 387.140252,64.9606664 386.186476,65.4176843 C385.232699,65.8747022 384.199441,66.1032112 383.086702,66.1032112 C381.775259,66.1032112 380.602909,65.8647671 379.569651,65.3878788 C378.536393,64.9109905 377.652162,64.2751395 376.916959,63.4803256 C376.181757,62.6855118 375.625387,61.771476 375.24785,60.738218 C374.870314,59.70496 374.681546,58.6319614 374.681546,57.5192221 C374.681546,56.4064827 374.870314,55.3334841 375.24785,54.3002261 C375.625387,53.2669682 376.181757,52.3529323 376.916959,51.5581185 C377.652162,50.7633047 378.536393,50.1274536 379.569651,49.6505654 C380.602909,49.1736771 381.775259,48.9352329 383.086702,48.9352329 C384.040478,48.9352329 384.974384,49.1935474 385.88842,49.7101764 C386.802456,50.2268054 387.676751,50.9222675 388.511306,51.7965626 L388.511306,51.7965626 L393.459022,46.8488467 C392.068098,45.3387004 390.448665,44.2358963 388.600722,43.5404342 C386.75278,42.8449721 384.914773,42.4972411 383.086702,42.4972411 C380.940704,42.4972411 378.913929,42.8549073 377.006376,43.5702397 C375.098823,44.2855721 373.449584,45.2989597 372.05866,46.6104025 C370.667736,47.9218453 369.564932,49.5015378 368.750248,51.3494799 C367.935563,53.197422 367.528221,55.2540027 367.528221,57.5192221 C367.528221,59.7844414 367.935563,61.8410222 368.750248,63.6889643 C369.564932,65.5369064 370.667736,67.1165988 372.05866,68.4280416 C373.449584,69.7394844 375.098823,70.752872 377.006376,71.4682044 C378.913929,72.1835369 380.940704,72.5412031 383.086702,72.5412031 Z M406.021872,72.5412031 C407.929425,72.5412031 409.678016,72.1736017 411.267643,71.4383989 C412.857271,70.7031961 414.168714,69.5209106 415.201972,67.8915423 L415.201972,67.8915423 L415.380805,67.8915423 L415.380805,71.8258706 L421.818797,71.8258706 L421.818797,55.3732248 C421.818797,54.697633 421.798926,53.9127544 421.759186,53.0185889 C421.719445,52.1244233 421.590288,51.2004523 421.371714,50.2466757 C421.15314,49.2928991 420.795474,48.3490577 420.298715,47.4151515 C419.801957,46.4812453 419.096559,45.656626 418.182524,44.9412935 C417.268488,44.2259611 416.116008,43.6397859 414.725084,43.182768 C413.334159,42.72575 411.62531,42.4972411 409.598534,42.4972411 C407.333315,42.4972411 405.137642,42.8549073 403.011515,43.5702397 C400.885388,44.2855721 399.027511,45.4579225 397.437883,47.0872908 L397.437883,47.0872908 L401.193378,50.8427861 C402.147155,49.9287502 403.279765,49.2034826 404.591207,48.6669833 C405.90265,48.1304839 407.313445,47.8622343 408.823591,47.8622343 C410.731144,47.8622343 412.300901,48.3093171 413.532863,49.2034826 C414.764824,50.0976481 415.380805,51.4388964 415.380805,53.2272275 L415.380805,53.2272275 L415.380805,54.002171 L413.592474,54.002171 C412.400253,54.002171 411.128551,54.0319765 409.777368,54.0915875 C408.426184,54.1511986 407.084936,54.290291 405.753623,54.5088648 C404.422309,54.7274386 403.140672,55.0552993 401.908711,55.4924469 C400.676749,55.9295945 399.593816,56.5157696 398.659909,57.2509724 C397.726003,57.9861752 396.980865,58.9002111 396.424496,59.9930801 C395.868126,61.085949 395.589941,62.407327 395.589941,63.9572139 C395.589941,65.3878788 395.887996,66.6397105 396.484107,67.7127092 C397.080217,68.7857078 397.865096,69.6798734 398.838742,70.3952058 C399.812389,71.1105382 400.925129,71.6470375 402.17696,72.0047038 C403.428792,72.36237 404.71043,72.5412031 406.021872,72.5412031 Z M407.750592,67.1762099 C407.154482,67.1762099 406.558372,67.1066637 405.962261,66.9675712 C405.366151,66.8284788 404.829652,66.5999698 404.352763,66.2820443 C403.875875,65.9641188 403.488403,65.5766471 403.190348,65.1196291 C402.892293,64.6626112 402.743265,64.0963063 402.743265,63.4207146 C402.743265,62.3874567 403.120802,61.5827077 403.875875,61.0064677 C404.630948,60.4302276 405.554919,59.9930801 406.647788,59.6950249 C407.740657,59.3969697 408.903072,59.2082014 410.135034,59.12872 C411.366995,59.0492387 412.479734,59.009498 413.473252,59.009498 L413.473252,59.009498 L414.963528,59.009498 L414.963528,60.6189959 C414.963528,62.6457711 414.377352,64.2453339 413.205002,65.4176843 C412.032652,66.5900347 410.214515,67.1762099 407.750592,67.1762099 Z M436.587255,71.8258706 L436.587255,26.7599276 L429.433931,26.7599276 L429.433931,71.8258706 L436.587255,71.8258706 Z M448.315551,37.7879692 C449.626994,37.7879692 450.729798,37.3806272 451.623964,36.565943 C452.518129,35.7512589 452.965212,34.7279361 452.965212,33.4959747 C452.965212,32.2640133 452.518129,31.2406905 451.623964,30.4260063 C450.729798,29.6113222 449.626994,29.2039801 448.315551,29.2039801 C447.004109,29.2039801 445.921175,29.6311925 445.06675,30.4856174 C444.212325,31.3400422 443.785113,32.3434946 443.785113,33.4959747 C443.785113,34.6484547 444.212325,35.6519071 445.06675,36.506332 C445.921175,37.3607568 447.004109,37.7879692 448.315551,37.7879692 Z M451.951825,71.8258706 L451.951825,43.2125735 L444.7985,43.2125735 L444.7985,71.8258706 L451.951825,71.8258706 Z M482.63643,71.8258706 L482.63643,66.1032112 L466.422228,66.1032112 L481.921097,49.7101764 L481.921097,43.2125735 L458.672793,43.2125735 L458.672793,48.9352329 L473.277497,48.9352329 L473.277497,49.054455 L457.957461,65.2090457 L457.957461,71.8258706 L482.63643,71.8258706 Z M502.65066,72.5412031 C504.915879,72.5412031 507.081747,72.1040555 509.148262,71.2297603 C511.214778,70.3554651 513.082591,68.8850596 514.7517,66.8185436 L514.7517,66.8185436 L509.625151,62.9438263 C508.711115,64.0565657 507.648051,64.9805367 506.43596,65.7157395 C505.223869,66.4509423 503.723658,66.8185436 501.935327,66.8185436 C499.908552,66.8185436 498.179832,66.2224333 496.749167,65.0302126 C495.318502,63.8379919 494.483948,62.1688829 494.245504,60.0228856 L494.245504,60.0228856 L516.063143,60.0228856 L516.063143,58.0557214 C516.063143,55.5520579 515.735282,53.3365144 515.079561,51.4090909 C514.423839,49.4816674 513.509803,47.8622343 512.337453,46.5507915 C511.165103,45.2393487 509.754308,44.2358963 508.105069,43.5404342 C506.455831,42.8449721 504.637694,42.4972411 502.65066,42.4972411 C500.504662,42.4972411 498.477887,42.8549073 496.570334,43.5702397 C494.662781,44.2855721 493.013542,45.2989597 491.622618,46.6104025 C490.231694,47.9218453 489.12889,49.5015378 488.314205,51.3494799 C487.499521,53.197422 487.092179,55.2540027 487.092179,57.5192221 C487.092179,59.7844414 487.499521,61.8410222 488.314205,63.6889643 C489.12889,65.5369064 490.231694,67.1165988 491.622618,68.4280416 C493.013542,69.7394844 494.662781,70.752872 496.570334,71.4682044 C498.477887,72.1835369 500.504662,72.5412031 502.65066,72.5412031 Z M508.909818,54.6578924 L494.245504,54.6578924 C494.523688,52.5913765 495.288697,50.9421378 496.540528,49.7101764 C497.79236,48.478215 499.491275,47.8622343 501.637272,47.8622343 C503.902491,47.8622343 505.670952,48.4682798 506.942654,49.6803709 C508.214356,50.8924619 508.870078,52.5516358 508.909818,54.6578924 L508.909818,54.6578924 Z" id="SimpleLocalize.io" fill="#222B33" fill-rule="nonzero"></path>
    </g>
</svg>